HIERARCHY
ROOT Hips
{
	OFFSET 0.000000 0.000000 0.000000
	CHANNELS 6 Xposition Yposition Zposition Zrotation Yrotation Xrotation 
	JOINT LHipJoint
	{
		OFFSET 0.000000 0.000000 0.000000
		CHANNELS 3 Zrotation Yrotation Xrotation
		JOINT LeftUpLeg
		{
			OFFSET 1.363060 -1.794630 0.839290
			CHANNELS 3 Zrotation Yrotation Xrotation
			JOINT LeftLeg
			{
				OFFSET 2.448110 -6.726130 0.000000
				CHANNELS 3 Zrotation Yrotation Xrotation
				JOINT LeftFoot
				{
					OFFSET 2.562200 -7.039590 0.000000
					CHANNELS 3 Zrotation Yrotation Xrotation
					JOINT LeftToeBase
					{
						OFFSET 0.157640 -0.433110 2.322550
						CHANNELS 3 Zrotation Yrotation Xrotation
						End Site
						{
							OFFSET 0.000000 0.000000 0.000000
						}
					}
				}
			}
		}
	}
	JOINT RHipJoint
	{
		OFFSET 0.000000 0.000000 0.000000
		CHANNELS 3 Zrotation Yrotation Xrotation
		JOINT RightUpLeg
		{
			OFFSET -1.305520 -1.794630 0.839290
			CHANNELS 3 Zrotation Yrotation Xrotation
			JOINT RightLeg
			{
				OFFSET -2.542530 -6.985550 0.000000
				CHANNELS 3 Zrotation Yrotation Xrotation
				JOINT RightFoot
				{
					OFFSET -2.568260 -7.056230 0.000000
					CHANNELS 3 Zrotation Yrotation Xrotation
					JOINT RightToeBase
					{
						OFFSET -0.164730 -0.452590 2.363150
						CHANNELS 3 Zrotation Yrotation Xrotation
						End Site
						{
							OFFSET 0.000000 0.000000 0.000000
						}
					}
				}
			}
		}
	}
}
MOTION
Frames: 14
Frame Time: 0.008333
-1.663051 17.069093 -0.920528 176.443975 83.309173 177.106310 -10.707885 4.886578 0.056691 -6.116986 6.812607 11.430265 -0.804712 2.295161 25.216474 0.566897 1.092654 11.071549 0.214201 -0.000000 -72.552600 9.663707 -0.635449 1.764349 4.046198 -1.734523 -20.946248 2.301658 -0.500949 11.957518 0.561150 3.972714 5.385124 0.483700 -0.000001 -63.705500
-1.495375 17.073649 -0.922180 179.578021 82.870106 -179.952734 -10.886398 4.961656 0.034829 -5.176463 7.268881 10.742052 -0.635390 2.410410 27.076646 0.644853 1.053691 12.372491 0.160300 -0.000000 -71.916000 9.641613 -0.724031 1.559140 4.559120 -2.528939 -20.521925 2.309314 -0.575892 12.644336 0.569416 4.054100 5.715351 0.521400 -0.000000 -62.812300
-1.330557 17.077463 -0.924160 -177.667722 82.381850 -177.394384 -11.075675 5.020564 -0.004874 -4.205597 7.841688 9.936447 -0.462011 2.513568 29.047618 0.750399 1.239512 13.621602 0.171600 0.000000 -70.530800 9.608142 -0.814429 1.349894 5.081169 -3.387698 -20.066670 2.323910 -0.634061 13.252712 0.569414 4.077237 5.881402 0.536400 -0.000000 -61.456100
-1.168592 17.080465 -0.926209 -175.308186 81.845053 -175.227588 -11.268770 5.058108 -0.062327 -3.227588 8.514021 9.022519 -0.288574 2.603488 31.107256 0.885408 1.734642 14.759939 0.291000 0.000000 -68.325600 9.565005 -0.906481 1.145710 5.595835 -4.267596 -19.579749 2.344330 -0.676272 13.783230 0.561513 4.040747 5.878232 0.527500 0.000000 -59.689399
-1.009380 17.082642 -0.928151 -173.344790 81.261335 -173.446415 -11.458622 5.070258 -0.136850 -2.268095 9.264785 8.011710 -0.119917 2.680382 33.227737 1.049427 2.604814 15.719891 0.557999 -0.000000 -65.291000 9.514482 -0.999102 0.955099 6.088229 -5.124899 -19.064269 2.368680 -0.703832 14.241777 0.545529 3.942031 5.708008 0.494700 -0.000001 -57.553900
-0.852852 17.084126 -0.929830 -171.765035 80.633502 -172.032827 -11.638775 5.054800 -0.226970 -1.351059 10.071558 6.916844 0.038829 2.745831 35.377572 1.239865 3.883410 16.426271 0.996399 -0.000000 -61.427000 9.459271 -1.090849 0.785299 6.546758 -5.920106 -18.524319 2.394191 -0.718388 14.635364 0.520430 3.774261 5.386222 0.439100 -0.000000 -55.159400
-0.698867 17.085143 -0.931215 -170.543260 79.964200 -170.956155 -11.803878 5.011618 -0.330513 -0.498484 10.911766 5.751114 0.182762 2.802519 37.522782 1.452066 5.558975 16.801495 1.602600 0.000000 -56.769300 9.401962 -1.180202 0.641927 6.963263 -6.619367 -17.965081 2.417546 -0.721788 14.971160 0.484323 3.525819 4.938475 0.362100 0.000000 -52.648300
-0.547367 17.086015 -0.932291 -169.648289 79.255954 -170.182077 -11.949692 4.942544 -0.444529 0.270738 11.762284 4.529212 0.308062 2.853544 39.624921 1.680136 7.573267 16.783581 2.338400 0.000000 -51.429200 9.345116 -1.265717 0.527973 7.332897 -7.199009 -17.391850 2.435172 -0.716205 15.256952 0.434749 3.182637 4.397244 0.265800 0.000000 -50.187600
-0.398324 17.087084 -0.933157 -169.049282 78.510601 -169.678147 -12.073044 4.850789 -0.565274 0.939017 12.599171 3.267094 0.412609 2.901391 41.641547 1.917868 9.827450 16.350755 3.135400 -0.000000 -45.760400 9.291497 -1.346047 0.443127 7.652277 -7.648949 -16.811361 2.443614 -0.704328 15.502965 0.369298 2.733021 3.797491 0.153299 0.000000 -47.947800
-0.251745 17.088745 -0.933962 -168.710007 77.728967 -169.409264 -12.172184 4.741170 -0.688315 1.493195 13.400005 1.979095 0.495357 2.948026 43.537605 2.157691 12.192405 15.502550 3.904000 0.000000 -40.030100 9.243458 -1.420399 0.384948 7.920643 -7.971372 -16.228305 2.440097 -0.688535 15.716111 0.285759 2.167182 3.173805 0.027799 0.000000 -46.073200
-0.107685 17.091392 -0.934870 -168.598705 76.910910 -169.345937 -12.246401 4.618963 -0.808909 1.922457 14.144786 0.678250 0.556683 2.993891 45.282860 2.392167 14.532905 14.284775 4.555900 0.000000 -34.631000 9.203504 -1.488316 0.348152 8.137413 -8.183888 -15.647609 2.422839 -0.671259 15.904945 0.183028 1.484752 2.554502 -0.107000 0.000001 -44.655500
0.033772 17.095308 -0.936046 -168.687016 76.057110 -169.464485 -12.295692 4.489515 -0.923325 2.219040 14.820397 -0.624740 0.597445 3.038506 46.858202 2.613178 16.723481 12.759011 5.018600 0.000000 -29.809800 9.174323 -1.549599 0.325301 8.301257 -8.318090 -15.073626 2.391313 -0.654688 16.078481 0.061624 0.697450 1.958985 -0.246400 -0.000001 -43.719600
0.172571 17.100672 -0.937749 -168.940717 75.167116 -169.736224 -12.321404 4.357976 -1.028582 2.381399 15.421572 -1.922869 0.618541 3.080762 48.254585 2.812469 18.660555 10.992294 5.244899 0.000000 -25.661500 9.157431 -1.604841 0.308937 8.413723 -8.410505 -14.506006 2.346464 -0.639903 16.238463 -0.076689 -0.177091 1.400955 -0.386700 -0.000000 -43.233500
0.308573 17.107544 -0.940205 -169.327306 74.242505 -170.135374 -12.325303 4.228408 -1.123333 2.411130 15.950595 -3.209892 0.620718 3.119073 49.468775 2.982818 20.272230 9.052065 5.218400 -0.000000 -22.170600 9.154037 -1.654725 0.291205 8.475366 -8.502075 -13.942959 2.290465 -0.627462 16.384617 -0.228307 -1.110935 0.886411 -0.523800 0.000000 -43.118400
